#!OML:ASF F:\VICON\USERDATA\INSTALL\Justin_Nancy\Justin_Nancy.ASF
:FULLY-SPECIFIED
:DEGREES
94
root 9.40636 16.7335 -5.48017 -4.33551 -9.81747 12.2033
lowerback 8.1747 -1.63888 -7.41449
upperback -0.571823 -2.92103 -0.109542
thorax -4.8312 -1.25413 4.40055
lowerneck -13.179 -5.63264 -13.286
upperneck 22.1682 -6.08179 5.11188
head 9.8004 -3.41195 3.2197
rclavicle -2.42269e-014 1.43125e-014
rhumerus -44.8622 -17.7084 -74.0668
rradius 25.2745
rwrist 12.9341
rhand -13.6706 11.0967
rfingers 7.12502
rthumb 12.4467 -18.5127
lclavicle -2.42269e-014 1.43125e-014
lhumerus -22.7973 14.0056 73.7715
lradius 36.6767
lwrist -2.03248
lhand -24.0584 26.7675
lfingers 7.12502
lthumb 2.42099 56.7335
rfemur -30.1738 -1.1677 23.6374
rtibia 27.7096
rfoot 5.59001 -8.32251
rtoes 25.2784
lfemur 4.62116 3.04127 -18.878
ltibia 45.9214
lfoot 12.738 -15.9801
ltoes -22.1241
95
root 9.33317 16.729 -5.28311 -4.66281 -11.3405 11.2213
lowerback 8.49249 -1.59217 -6.10745
upperback -0.407566 -2.73817 0.0509474
thorax -4.90872 -1.19642 3.82536
lowerneck -13.2051 -5.82938 -13.0518
upperneck 22.0627 -6.41416 5.12508
head 9.79207 -3.54317 3.13886
rclavicle 1.38901e-014 -1.59028e-014
rhumerus -43.9189 -17.9907 -74.2252
rradius 24.7052
rwrist 13.8133
rhand -13.5203 11.515
rfingers 7.12502
rthumb 12.5916 -18.0855
lclavicle 1.38901e-014 -1.59028e-014
lhumerus -23.4314 15.0729 73.2011
lradius 36.8519
lwrist -1.93156
lhand -23.8796 27.4599
lfingers 7.12502
lthumb 2.59362 57.4239
rfemur -29.3695 -0.669554 25.2736
rtibia 28.3564
rfoot 5.06198 -7.85
rtoes 25.8143
lfemur 3.08231 2.9244 -17.5626
ltibia 48.9506
lfoot 17.157 -19.0825
ltoes -21.9057
96
root 9.2492 16.7435 -5.07924 -5.01657 -12.6488 10.7143
lowerback 8.61121 -1.70826 -5.46933
upperback -0.250655 -2.82363 0.184539
thorax -4.82317 -1.25945 3.61806
lowerneck -13.63 -5.93818 -12.7756
upperneck 22.3426 -6.54609 4.96036
head 9.96836 -3.59928 3.00946
rclavicle -3.09607e-014 3.18055e-015
rhumerus -42.8684 -17.6422 -74.6578
rradius 24.3925
rwrist 14.5187
rhand -13.2808 11.7922
rfingers 7.12502
rthumb 12.8225 -17.7939
lclavicle -3.09607e-014 3.18055e-015
lhumerus -24.4589 16.403 72.5575
lradius 37.0629
lwrist -1.59699
lhand -24.5762 28.8493
lfingers 7.12502
lthumb 1.92092 58.8204
rfemur -28.2524 -0.488135 26.3687
rtibia 28.5898
rfoot 4.1561 -6.97485
rtoes 25.7494
lfemur 1.52937 2.37004 -16.8825
ltibia 51.5994
lfoot 22.5583 -22.0538
ltoes 9.30453
97
root 9.15519 16.7619 -4.88136 -5.23856 -14.0285 10.3767
lowerback 8.52407 -1.88032 -5.18761
upperback -0.150292 -3.00738 0.3578
thorax -4.65452 -1.36283 3.65525
lowerneck -14.0484 -6.05191 -12.6401
upperneck 22.6064 -6.6609 4.82325
head 10.1436 -3.65604 2.91397
rclavicle 7.97623e-014 1.74931e-014
rhumerus -41.7991 -17.1272 -75.1045
rradius 24.2822
rwrist 15.3218
rhand -12.9722 11.8567
rfingers 7.12502
rthumb 13.1199 -17.7106
lclavicle 7.97623e-014 1.74931e-014
lhumerus -25.7174 18.0545 71.8443
lradius 37.3178
lwrist -1.45454
lhand -25.0987 29.7652
lfingers 7.12502
lthumb 1.41624 59.7403
rfemur -27.1499 -0.125283 27.3224
rtibia 28.6413
rfoot 3.31043 -6.01051
rtoes 25.5319
lfemur -0.111314 1.76419 -16.4063
ltibia 53.9573
lfoot 25.0618 -21.1788
ltoes 7.38909
98
root 9.05385 16.7766 -4.69299 -5.44071 -15.6226 10.3744
lowerback 8.36349 -1.85373 -5.32971
upperback 0.0283319 -2.97034 0.384363
thorax -4.37224 -1.35408 3.74571
lowerneck -14.2687 -6.42546 -12.4012
upperneck 22.3501 -7.21512 4.83901
head 10.1365 -3.88084 2.7937
rclavicle 6.09772e-014 6.36111e-015
rhumerus -40.5187 -17.6073 -75.3146
rradius 24.0336
rwrist 16.4848
rhand -12.8171 12.0116
rfingers 7.12502
rthumb 13.2695 -17.546
lclavicle 6.09772e-014 6.36111e-015
lhumerus -26.6702 19.4954 71.2331
lradius 37.5328
lwrist -1.30992
lhand -24.7689 28.6769
lfingers 7.12502
lthumb 1.73479 58.6496
rfemur -26.1639 0.382846 27.9725
rtibia 28.7009
rfoot 2.67954 -5.2713
rtoes 25.626
lfemur -1.78579 1.33354 -16.2989
ltibia 56.1666
lfoot 23.2581 -19.7256
ltoes 3.06115
99
root 8.94853 16.7959 -4.50803 -5.60117 -17.3897 10.693
lowerback 8.16235 -1.70414 -5.85765
upperback 0.166011 -2.80713 0.34329
thorax -4.10945 -1.27488 3.96859
lowerneck -15.6582 -7.13882 -12.2355
upperneck 22.8936 -8.15776 5.05549
head 10.6904 -4.25689 2.66621
rclavicle -6.65929e-015 1.27222e-014
rhumerus -39.193 -18.1602 -75.579
rradius 23.947
rwrist 17.3963
rhand -12.7022 12.2923
rfingers 7.12502
rthumb 13.3802 -17.2581
lclavicle -6.65929e-015 1.27222e-014
lhumerus -27.4807 20.5993 70.7411
lradius 37.3504
lwrist -0.672984
lhand -25.093 27.9151
lfingers 7.12502
lthumb 1.42176 57.8901
rfemur -25.2667 1.11357 28.2515
rtibia 28.6689
rfoot 2.1764 -4.45991
rtoes 26.0079
lfemur -3.48146 1.17094 -16.5427
ltibia 58.2281
lfoot 20.8477 -18.1829
ltoes 4.05538
100
root 8.85496 16.8188 -4.32177 -5.56661 -18.6718 10.7037
lowerback 8.01231 -1.8761 -6.05996
upperback 0.0350841 -3.04402 0.460254
thorax -4.11978 -1.38394 4.22558
lowerneck -17.5877 -7.79508 -12.0591
upperneck 24.2579 -8.96577 5.08877
head 11.6468 -4.58196 2.46197
rclavicle 1.50579e-014 1.43125e-014
rhumerus -38.2098 -17.5303 -76.0951
rradius 24.2145
rwrist 17.4937
rhand -12.7308 12.0664
rfingers 7.12502
rthumb 13.3527 -17.4857
lclavicle 1.50579e-014 1.43125e-014
lhumerus -28.8891 21.5628 70.1299
lradius 36.9553
lwrist 0.421892
lhand -25.8737 27.4864
lfingers 7.12502
lthumb 0.667749 57.4651
rfemur -24.3619 1.45884 28.6969
rtibia 28.4962
rfoot 1.43912 -3.63867
rtoes 25.6247
lfemur -5.26937 0.626397 -16.5652
ltibia 60.1451
lfoot 17.9333 -16.7701
ltoes 1.17705
101
root 8.75857 16.8575 -4.13926 -5.40289 -20.6069 10.6738
lowerback 7.59245 -1.94435 -6.1574
upperback -0.172118 -3.11655 0.583214
thorax -4.08057 -1.41347 4.40155
lowerneck -18.7726 -8.24985 -11.7368
upperneck 25.5514 -9.58404 4.86771
head 12.4147 -4.84465 2.17888
rclavicle -1.30701e-014 -1.59028e-015
rhumerus -37.2339 -16.8873 -76.6971
rradius 24.3951
rwrist 17.555
rhand -13.1926 12.6927
rfingers 7.12502
rthumb 12.9076 -16.8882
lclavicle -1.30701e-014 -1.59028e-015
lhumerus -30.4961 22.2214 69.3919
lradius 36.7405
lwrist 1.61311
lhand -26.3451 28.2291
lfingers 7.12502
lthumb 0.212423 58.2087
rfemur -23.4895 1.41772 29.3886
rtibia 28.123
rfoot 0.576969 -1.93098
rtoes 24.5448
lfemur -6.99573 0.655789 -16.5058
ltibia 61.7773
lfoot 14.5514 -14.0846
ltoes -1.88741
102
root 8.65892 16.8919 -3.95965 -5.37081 -23.0818 10.5811
lowerback 7.26005 -1.79811 -6.21386
upperback -0.272206 -2.90277 0.687016
thorax -4.01576 -1.30536 4.50847
lowerneck -17.6311 -8.23225 -11.5352
upperneck 25.4118 -9.77677 4.85264
head 12.1365 -4.94204 2.14446
rclavicle -6.11263e-015 -4.77083e-015
rhumerus -36.1413 -16.5471 -77.3216
rradius 24.5669
rwrist 17.3059
rhand -13.3251 14.3837
rfingers 7.12502
rthumb 12.7798 -15.2052
lclavicle -6.11263e-015 -4.77083e-015
lhumerus -31.9867 22.6712 68.6965
lradius 36.4776
lwrist 2.74233
lhand -26.5868 25.9177
lfingers 7.12502
lthumb -0.0209743 55.8975
rfemur -22.3502 1.98794 30.1541
rtibia 27.6073
rfoot -0.329106 -0.410699
rtoes 24.5387
lfemur -8.44068 1.12274 -16.2698
ltibia 63.1765
lfoot 12.562 -11.5011
ltoes -10.2059
103
root 8.56121 16.9185 -3.79067 -5.41535 -25.6037 10.4765
lowerback 7.20693 -1.59658 -6.42067
upperback -0.373332 -2.6425 0.898082
thorax -4.1049 -1.16382 4.82246
lowerneck -12.9471 -7.53772 -12.2357
upperneck 22.9399 -9.27912 5.5698
head 10.3233 -4.7845 2.75827
rclavicle -2.93207e-015 2.22639e-014
rhumerus -35.0705 -15.5798 -78.1471
rradius 25.0192
rwrist 16.3775
rhand -13.2571 15.1599
rfingers 7.12502
rthumb 12.8453 -14.4249
lclavicle -2.93207e-015 2.22639e-014
lhumerus -33.5688 23.2234 68.1558
lradius 36.1969
lwrist 3.55119
lhand -27.109 20.9546
lfingers 7.12502
lthumb -0.525327 50.9337
rfemur -21.0252 2.85993 30.8669
rtibia 27.0354
rfoot -1.21228 0.761949
rtoes 25.683
lfemur -9.78519 1.45124 -15.9247
ltibia 64.2733
lfoot 10.7257 -8.57865
ltoes -12.9565
104
root 8.47433 16.9505 -3.62669 -5.50045 -28.0186 10.7865
lowerback 7.07852 -1.42474 -6.81627
upperback -0.543865 -2.44151 0.946983
thorax -4.22024 -1.04566 5.07748
lowerneck -12.4787 -7.90044 -12.7829
upperneck 22.9626 -9.88198 6.09433
head 10.3646 -5.06536 2.95608
rclavicle -2.48481e-014 7.95139e-015
rhumerus -34.0526 -14.3134 -79.189
rradius 25.5137
rwrist 15.4979
rhand -13.2936 15.3251
rfingers 7.12502
rthumb 12.8102 -14.2618
lclavicle -2.48481e-014 7.95139e-015
lhumerus -35.1278 23.7166 67.5701
lradius 35.6364
lwrist 4.17159
lhand -26.3382 25.6057
lfingers 7.12502
lthumb 0.219075 55.5853
rfemur -19.838 3.29739 31.1181
rtibia 26.4435
rfoot -2.04573 2.43581
rtoes 24.5063
lfemur -11.3113 1.64608 -16.0712
ltibia 65.1557
lfoot 9.23552 -5.22004
ltoes -10.7623
105
root 8.39181 16.9964 -3.45566 -5.89122 -30.548 11.7256
lowerback 6.89348 -1.18188 -7.44552
upperback -0.837133 -2.17522 0.778413
thorax -4.4466 -0.88276 5.23033
lowerneck -11.7325 -8.15437 -13.3593
upperneck 22.9493 -10.3775 6.64435
head 10.3381 -5.30634 3.19386
rclavicle 2.68359e-015 -1.11319e-014
rhumerus -33.2555 -13.5415 -80.0075
rradius 25.8881
rwrist 15.066
rhand -13.2249 15.4995
rfingers 7.12502
rthumb 12.8764 -14.0833
lclavicle 2.68359e-015 -1.11319e-014
lhumerus -36.8923 23.7072 66.984
lradius 35.0595
lwrist 4.40349
lhand -24.7967 26.0443
lfingers 7.12502
lthumb 1.70796 56.0172
rfemur -18.6414 3.38886 30.7735
rtibia 25.7416
rfoot -3.00843 4.40685
rtoes 22.9697
lfemur -12.6912 1.86495 -17.0066
ltibia 65.8125
lfoot 8.04511 -2.21812
ltoes -9.7073
106
root 8.30317 17.0442 -3.2825 -6.1849 -33.1937 12.3206
lowerback 6.70754 -0.853841 -7.56165
upperback -1.11352 -1.75175 0.59709
thorax -4.69652 -0.653661 5.06341
lowerneck -11.0905 -8.3807 -13.6998
upperneck 22.9972 -10.8587 7.10167
head 10.3369 -5.53094 3.36078
rclavicle -7.10158e-014 1.59028e-014
rhumerus -32.8005 -12.7906 -80.9248
rradius 26.8219
rwrist 14.0491
rhand -12.7627 14.7547
rfingers 7.12502
rthumb 13.3219 -14.7995
lclavicle -7.10158e-014 1.59028e-014
lhumerus -38.448 23.3227 66.5041
lradius 34.4015
lwrist 4.29025
lhand -23.8434 25.9039
lfingers 7.12502
lthumb 2.62864 55.8675
rfemur -17.3428 3.50319 30.7967
rtibia 24.9375
rfoot -3.97667 5.99356
rtoes 23.158
lfemur -14.1165 2.03092 -17.4997
ltibia 66.4106
lfoot 7.02612 0.439169
ltoes -8.28458
107
root 8.21077 17.0835 -3.11349 -6.02014 -35.7963 12.2009
lowerback 6.36037 -0.705066 -7.10458
upperback -1.22709 -1.49148 0.588351
thorax -4.66539 -0.535514 4.76282
lowerneck -10.909 -8.46655 -13.5294
upperneck 23.0087 -11.087 7.21464
head 10.3278 -5.61887 3.34598
rclavicle 2.73329e-015 1.59028e-014
rhumerus -32.0902 -11.4168 -82.2453
rradius 28.0617
rwrist 12.494
rhand -12.3134 14.273
rfingers 7.12502
rthumb 13.755 -15.2523
lclavicle 2.73329e-015 1.59028e-014
lhumerus -39.91 23.336 65.9285
lradius 33.7881
lwrist 3.91846
lhand -23.2987 26.8522
lfingers 7.12502
lthumb 3.15461 56.8086
rfemur -16.1347 3.53576 31.5171
rtibia 24.1042
rfoot -4.85749 7.26751
rtoes 22.0547
lfemur -15.8382 2.12709 -17.105
ltibia 67.0145
lfoot 5.9202 3.20979
ltoes -4.92685
108
root 8.12608 17.1187 -2.94452 -6.04112 -38.3267 12.2371
lowerback 6.11649 -0.59757 -6.68894
upperback -1.19525 -1.29617 0.559349
thorax -4.52711 -0.456591 4.47251
lowerneck -10.9754 -8.46388 -13.3481
upperneck 23.0112 -11.1377 7.27654
head 10.338 -5.62155 3.3291
rclavicle -6.60959e-014 -1.43125e-014
rhumerus -31.2832 -9.92276 -83.6004
rradius 29.5615
rwrist 11.2418
rhand -12.5041 14.3909
rfingers 7.12502
rthumb 13.5711 -15.1468
lclavicle -6.60959e-014 -1.43125e-014
lhumerus -41.3704 23.4933 65.458
lradius 33.3035
lwrist 3.28651
lhand -22.7108 25.9804
lfingers 7.12502
lthumb 3.72238 55.9276
rfemur -14.8962 3.12529 32.0963
rtibia 23.3197
rfoot -5.83278 8.34322
rtoes 19.5137
lfemur -17.2664 2.16747 -16.8559
ltibia 67.439
lfoot 4.57246 6.07885
ltoes -3.282
